<svg xmlns="http://www.w3.org/2000/svg" width="64mm" height="48mm" viewBox="0 0 64 48" shape-rendering="crispEdges">
<title>AprilTag 36h11 IDs 1 to 5, outer black borders 10.62 mm</title>
<rect width="100%" height="100%" fill="white"/>
<g fill="black">
<rect x="6.690000" y="4.000000" width="1.327500" height="1.327500"/>
<rect x="8.017500" y="4.000000" width="1.327500" height="1.327500"/>
<rect x="9.345000" y="4.000000" width="1.327500" height="1.327500"/>
<rect x="10.672500" y="4.000000" width="1.327500" height="1.327500"/>
<rect x="12.000000" y="4.000000" width="1.327500" height="1.327500"/>
<rect x="13.327500" y="4.000000" width="1.327500" height="1.327500"/>
<rect x="14.655000" y="4.000000" width="1.327500" height="1.327500"/>
<rect x="15.982500" y="4.000000" width="1.327500" height="1.327500"/>
<rect x="6.690000" y="5.327500" width="1.327500" height="1.327500"/>
<rect x="9.345000" y="5.327500" width="1.327500" height="1.327500"/>
<rect x="10.672500" y="5.327500" width="1.327500" height="1.327500"/>
<rect x="13.327500" y="5.327500" width="1.327500" height="1.327500"/>
<rect x="14.655000" y="5.327500" width="1.327500" height="1.327500"/>
<rect x="15.982500" y="5.327500" width="1.327500" height="1.327500"/>
<rect x="6.690000" y="6.655000" width="1.327500" height="1.327500"/>
<rect x="9.345000" y="6.655000" width="1.327500" height="1.327500"/>
<rect x="13.327500" y="6.655000" width="1.327500" height="1.327500"/>
<rect x="15.982500" y="6.655000" width="1.327500" height="1.327500"/>
<rect x="6.690000" y="7.982500" width="1.327500" height="1.327500"/>
<rect x="8.017500" y="7.982500" width="1.327500" height="1.327500"/>
<rect x="9.345000" y="7.982500" width="1.327500" height="1.327500"/>
<rect x="10.672500" y="7.982500" width="1.327500" height="1.327500"/>
<rect x="14.655000" y="7.982500" width="1.327500" height="1.327500"/>
<rect x="15.982500" y="7.982500" width="1.327500" height="1.327500"/>
<rect x="6.690000" y="9.310000" width="1.327500" height="1.327500"/>
<rect x="8.017500" y="9.310000" width="1.327500" height="1.327500"/>
<rect x="9.345000" y="9.310000" width="1.327500" height="1.327500"/>
<rect x="15.982500" y="9.310000" width="1.327500" height="1.327500"/>
<rect x="6.690000" y="10.637500" width="1.327500" height="1.327500"/>
<rect x="12.000000" y="10.637500" width="1.327500" height="1.327500"/>
<rect x="14.655000" y="10.637500" width="1.327500" height="1.327500"/>
<rect x="15.982500" y="10.637500" width="1.327500" height="1.327500"/>
<rect x="6.690000" y="11.965000" width="1.327500" height="1.327500"/>
<rect x="8.017500" y="11.965000" width="1.327500" height="1.327500"/>
<rect x="12.000000" y="11.965000" width="1.327500" height="1.327500"/>
<rect x="15.982500" y="11.965000" width="1.327500" height="1.327500"/>
<rect x="6.690000" y="13.292500" width="1.327500" height="1.327500"/>
<rect x="8.017500" y="13.292500" width="1.327500" height="1.327500"/>
<rect x="9.345000" y="13.292500" width="1.327500" height="1.327500"/>
<rect x="10.672500" y="13.292500" width="1.327500" height="1.327500"/>
<rect x="12.000000" y="13.292500" width="1.327500" height="1.327500"/>
<rect x="13.327500" y="13.292500" width="1.327500" height="1.327500"/>
<rect x="14.655000" y="13.292500" width="1.327500" height="1.327500"/>
<rect x="15.982500" y="13.292500" width="1.327500" height="1.327500"/>
</g>
<text x="12.000000" y="17.620000" text-anchor="middle" font-family="Arial, sans-serif" font-size="2.2" fill="black">ID 1</text>
<g fill="black">
<rect x="26.690000" y="4.000000" width="1.327500" height="1.327500"/>
<rect x="28.017500" y="4.000000" width="1.327500" height="1.327500"/>
<rect x="29.345000" y="4.000000" width="1.327500" height="1.327500"/>
<rect x="30.672500" y="4.000000" width="1.327500" height="1.327500"/>
<rect x="32.000000" y="4.000000" width="1.327500" height="1.327500"/>
<rect x="33.327500" y="4.000000" width="1.327500" height="1.327500"/>
<rect x="34.655000" y="4.000000" width="1.327500" height="1.327500"/>
<rect x="35.982500" y="4.000000" width="1.327500" height="1.327500"/>
<rect x="26.690000" y="5.327500" width="1.327500" height="1.327500"/>
<rect x="28.017500" y="5.327500" width="1.327500" height="1.327500"/>
<rect x="33.327500" y="5.327500" width="1.327500" height="1.327500"/>
<rect x="34.655000" y="5.327500" width="1.327500" height="1.327500"/>
<rect x="35.982500" y="5.327500" width="1.327500" height="1.327500"/>
<rect x="26.690000" y="6.655000" width="1.327500" height="1.327500"/>
<rect x="28.017500" y="6.655000" width="1.327500" height="1.327500"/>
<rect x="29.345000" y="6.655000" width="1.327500" height="1.327500"/>
<rect x="32.000000" y="6.655000" width="1.327500" height="1.327500"/>
<rect x="33.327500" y="6.655000" width="1.327500" height="1.327500"/>
<rect x="34.655000" y="6.655000" width="1.327500" height="1.327500"/>
<rect x="35.982500" y="6.655000" width="1.327500" height="1.327500"/>
<rect x="26.690000" y="7.982500" width="1.327500" height="1.327500"/>
<rect x="29.345000" y="7.982500" width="1.327500" height="1.327500"/>
<rect x="30.672500" y="7.982500" width="1.327500" height="1.327500"/>
<rect x="33.327500" y="7.982500" width="1.327500" height="1.327500"/>
<rect x="34.655000" y="7.982500" width="1.327500" height="1.327500"/>
<rect x="35.982500" y="7.982500" width="1.327500" height="1.327500"/>
<rect x="26.690000" y="9.310000" width="1.327500" height="1.327500"/>
<rect x="28.017500" y="9.310000" width="1.327500" height="1.327500"/>
<rect x="29.345000" y="9.310000" width="1.327500" height="1.327500"/>
<rect x="30.672500" y="9.310000" width="1.327500" height="1.327500"/>
<rect x="32.000000" y="9.310000" width="1.327500" height="1.327500"/>
<rect x="33.327500" y="9.310000" width="1.327500" height="1.327500"/>
<rect x="35.982500" y="9.310000" width="1.327500" height="1.327500"/>
<rect x="26.690000" y="10.637500" width="1.327500" height="1.327500"/>
<rect x="28.017500" y="10.637500" width="1.327500" height="1.327500"/>
<rect x="30.672500" y="10.637500" width="1.327500" height="1.327500"/>
<rect x="32.000000" y="10.637500" width="1.327500" height="1.327500"/>
<rect x="34.655000" y="10.637500" width="1.327500" height="1.327500"/>
<rect x="35.982500" y="10.637500" width="1.327500" height="1.327500"/>
<rect x="26.690000" y="11.965000" width="1.327500" height="1.327500"/>
<rect x="32.000000" y="11.965000" width="1.327500" height="1.327500"/>
<rect x="35.982500" y="11.965000" width="1.327500" height="1.327500"/>
<rect x="26.690000" y="13.292500" width="1.327500" height="1.327500"/>
<rect x="28.017500" y="13.292500" width="1.327500" height="1.327500"/>
<rect x="29.345000" y="13.292500" width="1.327500" height="1.327500"/>
<rect x="30.672500" y="13.292500" width="1.327500" height="1.327500"/>
<rect x="32.000000" y="13.292500" width="1.327500" height="1.327500"/>
<rect x="33.327500" y="13.292500" width="1.327500" height="1.327500"/>
<rect x="34.655000" y="13.292500" width="1.327500" height="1.327500"/>
<rect x="35.982500" y="13.292500" width="1.327500" height="1.327500"/>
</g>
<text x="32.000000" y="17.620000" text-anchor="middle" font-family="Arial, sans-serif" font-size="2.2" fill="black">ID 2</text>
<g fill="black">
<rect x="46.690000" y="4.000000" width="1.327500" height="1.327500"/>
<rect x="48.017500" y="4.000000" width="1.327500" height="1.327500"/>
<rect x="49.345000" y="4.000000" width="1.327500" height="1.327500"/>
<rect x="50.672500" y="4.000000" width="1.327500" height="1.327500"/>
<rect x="52.000000" y="4.000000" width="1.327500" height="1.327500"/>
<rect x="53.327500" y="4.000000" width="1.327500" height="1.327500"/>
<rect x="54.655000" y="4.000000" width="1.327500" height="1.327500"/>
<rect x="55.982500" y="4.000000" width="1.327500" height="1.327500"/>
<rect x="46.690000" y="5.327500" width="1.327500" height="1.327500"/>
<rect x="48.017500" y="5.327500" width="1.327500" height="1.327500"/>
<rect x="49.345000" y="5.327500" width="1.327500" height="1.327500"/>
<rect x="50.672500" y="5.327500" width="1.327500" height="1.327500"/>
<rect x="54.655000" y="5.327500" width="1.327500" height="1.327500"/>
<rect x="55.982500" y="5.327500" width="1.327500" height="1.327500"/>
<rect x="46.690000" y="6.655000" width="1.327500" height="1.327500"/>
<rect x="48.017500" y="6.655000" width="1.327500" height="1.327500"/>
<rect x="50.672500" y="6.655000" width="1.327500" height="1.327500"/>
<rect x="52.000000" y="6.655000" width="1.327500" height="1.327500"/>
<rect x="55.982500" y="6.655000" width="1.327500" height="1.327500"/>
<rect x="46.690000" y="7.982500" width="1.327500" height="1.327500"/>
<rect x="49.345000" y="7.982500" width="1.327500" height="1.327500"/>
<rect x="50.672500" y="7.982500" width="1.327500" height="1.327500"/>
<rect x="53.327500" y="7.982500" width="1.327500" height="1.327500"/>
<rect x="55.982500" y="7.982500" width="1.327500" height="1.327500"/>
<rect x="46.690000" y="9.310000" width="1.327500" height="1.327500"/>
<rect x="52.000000" y="9.310000" width="1.327500" height="1.327500"/>
<rect x="53.327500" y="9.310000" width="1.327500" height="1.327500"/>
<rect x="55.982500" y="9.310000" width="1.327500" height="1.327500"/>
<rect x="46.690000" y="10.637500" width="1.327500" height="1.327500"/>
<rect x="52.000000" y="10.637500" width="1.327500" height="1.327500"/>
<rect x="53.327500" y="10.637500" width="1.327500" height="1.327500"/>
<rect x="54.655000" y="10.637500" width="1.327500" height="1.327500"/>
<rect x="55.982500" y="10.637500" width="1.327500" height="1.327500"/>
<rect x="46.690000" y="11.965000" width="1.327500" height="1.327500"/>
<rect x="49.345000" y="11.965000" width="1.327500" height="1.327500"/>
<rect x="50.672500" y="11.965000" width="1.327500" height="1.327500"/>
<rect x="55.982500" y="11.965000" width="1.327500" height="1.327500"/>
<rect x="46.690000" y="13.292500" width="1.327500" height="1.327500"/>
<rect x="48.017500" y="13.292500" width="1.327500" height="1.327500"/>
<rect x="49.345000" y="13.292500" width="1.327500" height="1.327500"/>
<rect x="50.672500" y="13.292500" width="1.327500" height="1.327500"/>
<rect x="52.000000" y="13.292500" width="1.327500" height="1.327500"/>
<rect x="53.327500" y="13.292500" width="1.327500" height="1.327500"/>
<rect x="54.655000" y="13.292500" width="1.327500" height="1.327500"/>
<rect x="55.982500" y="13.292500" width="1.327500" height="1.327500"/>
</g>
<text x="52.000000" y="17.620000" text-anchor="middle" font-family="Arial, sans-serif" font-size="2.2" fill="black">ID 3</text>
<g fill="black">
<rect x="16.690000" y="23.000000" width="1.327500" height="1.327500"/>
<rect x="18.017500" y="23.000000" width="1.327500" height="1.327500"/>
<rect x="19.345000" y="23.000000" width="1.327500" height="1.327500"/>
<rect x="20.672500" y="23.000000" width="1.327500" height="1.327500"/>
<rect x="22.000000" y="23.000000" width="1.327500" height="1.327500"/>
<rect x="23.327500" y="23.000000" width="1.327500" height="1.327500"/>
<rect x="24.655000" y="23.000000" width="1.327500" height="1.327500"/>
<rect x="25.982500" y="23.000000" width="1.327500" height="1.327500"/>
<rect x="16.690000" y="24.327500" width="1.327500" height="1.327500"/>
<rect x="18.017500" y="24.327500" width="1.327500" height="1.327500"/>
<rect x="20.672500" y="24.327500" width="1.327500" height="1.327500"/>
<rect x="22.000000" y="24.327500" width="1.327500" height="1.327500"/>
<rect x="23.327500" y="24.327500" width="1.327500" height="1.327500"/>
<rect x="25.982500" y="24.327500" width="1.327500" height="1.327500"/>
<rect x="16.690000" y="25.655000" width="1.327500" height="1.327500"/>
<rect x="18.017500" y="25.655000" width="1.327500" height="1.327500"/>
<rect x="19.345000" y="25.655000" width="1.327500" height="1.327500"/>
<rect x="20.672500" y="25.655000" width="1.327500" height="1.327500"/>
<rect x="22.000000" y="25.655000" width="1.327500" height="1.327500"/>
<rect x="23.327500" y="25.655000" width="1.327500" height="1.327500"/>
<rect x="25.982500" y="25.655000" width="1.327500" height="1.327500"/>
<rect x="16.690000" y="26.982500" width="1.327500" height="1.327500"/>
<rect x="18.017500" y="26.982500" width="1.327500" height="1.327500"/>
<rect x="20.672500" y="26.982500" width="1.327500" height="1.327500"/>
<rect x="23.327500" y="26.982500" width="1.327500" height="1.327500"/>
<rect x="24.655000" y="26.982500" width="1.327500" height="1.327500"/>
<rect x="25.982500" y="26.982500" width="1.327500" height="1.327500"/>
<rect x="16.690000" y="28.310000" width="1.327500" height="1.327500"/>
<rect x="23.327500" y="28.310000" width="1.327500" height="1.327500"/>
<rect x="25.982500" y="28.310000" width="1.327500" height="1.327500"/>
<rect x="16.690000" y="29.637500" width="1.327500" height="1.327500"/>
<rect x="18.017500" y="29.637500" width="1.327500" height="1.327500"/>
<rect x="19.345000" y="29.637500" width="1.327500" height="1.327500"/>
<rect x="25.982500" y="29.637500" width="1.327500" height="1.327500"/>
<rect x="16.690000" y="30.965000" width="1.327500" height="1.327500"/>
<rect x="18.017500" y="30.965000" width="1.327500" height="1.327500"/>
<rect x="20.672500" y="30.965000" width="1.327500" height="1.327500"/>
<rect x="25.982500" y="30.965000" width="1.327500" height="1.327500"/>
<rect x="16.690000" y="32.292500" width="1.327500" height="1.327500"/>
<rect x="18.017500" y="32.292500" width="1.327500" height="1.327500"/>
<rect x="19.345000" y="32.292500" width="1.327500" height="1.327500"/>
<rect x="20.672500" y="32.292500" width="1.327500" height="1.327500"/>
<rect x="22.000000" y="32.292500" width="1.327500" height="1.327500"/>
<rect x="23.327500" y="32.292500" width="1.327500" height="1.327500"/>
<rect x="24.655000" y="32.292500" width="1.327500" height="1.327500"/>
<rect x="25.982500" y="32.292500" width="1.327500" height="1.327500"/>
</g>
<text x="22.000000" y="36.620000" text-anchor="middle" font-family="Arial, sans-serif" font-size="2.2" fill="black">ID 4</text>
<g fill="black">
<rect x="36.690000" y="23.000000" width="1.327500" height="1.327500"/>
<rect x="38.017500" y="23.000000" width="1.327500" height="1.327500"/>
<rect x="39.345000" y="23.000000" width="1.327500" height="1.327500"/>
<rect x="40.672500" y="23.000000" width="1.327500" height="1.327500"/>
<rect x="42.000000" y="23.000000" width="1.327500" height="1.327500"/>
<rect x="43.327500" y="23.000000" width="1.327500" height="1.327500"/>
<rect x="44.655000" y="23.000000" width="1.327500" height="1.327500"/>
<rect x="45.982500" y="23.000000" width="1.327500" height="1.327500"/>
<rect x="36.690000" y="24.327500" width="1.327500" height="1.327500"/>
<rect x="38.017500" y="24.327500" width="1.327500" height="1.327500"/>
<rect x="39.345000" y="24.327500" width="1.327500" height="1.327500"/>
<rect x="43.327500" y="24.327500" width="1.327500" height="1.327500"/>
<rect x="45.982500" y="24.327500" width="1.327500" height="1.327500"/>
<rect x="36.690000" y="25.655000" width="1.327500" height="1.327500"/>
<rect x="38.017500" y="25.655000" width="1.327500" height="1.327500"/>
<rect x="43.327500" y="25.655000" width="1.327500" height="1.327500"/>
<rect x="44.655000" y="25.655000" width="1.327500" height="1.327500"/>
<rect x="45.982500" y="25.655000" width="1.327500" height="1.327500"/>
<rect x="36.690000" y="26.982500" width="1.327500" height="1.327500"/>
<rect x="40.672500" y="26.982500" width="1.327500" height="1.327500"/>
<rect x="43.327500" y="26.982500" width="1.327500" height="1.327500"/>
<rect x="45.982500" y="26.982500" width="1.327500" height="1.327500"/>
<rect x="36.690000" y="28.310000" width="1.327500" height="1.327500"/>
<rect x="38.017500" y="28.310000" width="1.327500" height="1.327500"/>
<rect x="42.000000" y="28.310000" width="1.327500" height="1.327500"/>
<rect x="45.982500" y="28.310000" width="1.327500" height="1.327500"/>
<rect x="36.690000" y="29.637500" width="1.327500" height="1.327500"/>
<rect x="39.345000" y="29.637500" width="1.327500" height="1.327500"/>
<rect x="40.672500" y="29.637500" width="1.327500" height="1.327500"/>
<rect x="42.000000" y="29.637500" width="1.327500" height="1.327500"/>
<rect x="45.982500" y="29.637500" width="1.327500" height="1.327500"/>
<rect x="36.690000" y="30.965000" width="1.327500" height="1.327500"/>
<rect x="38.017500" y="30.965000" width="1.327500" height="1.327500"/>
<rect x="39.345000" y="30.965000" width="1.327500" height="1.327500"/>
<rect x="45.982500" y="30.965000" width="1.327500" height="1.327500"/>
<rect x="36.690000" y="32.292500" width="1.327500" height="1.327500"/>
<rect x="38.017500" y="32.292500" width="1.327500" height="1.327500"/>
<rect x="39.345000" y="32.292500" width="1.327500" height="1.327500"/>
<rect x="40.672500" y="32.292500" width="1.327500" height="1.327500"/>
<rect x="42.000000" y="32.292500" width="1.327500" height="1.327500"/>
<rect x="43.327500" y="32.292500" width="1.327500" height="1.327500"/>
<rect x="44.655000" y="32.292500" width="1.327500" height="1.327500"/>
<rect x="45.982500" y="32.292500" width="1.327500" height="1.327500"/>
</g>
<text x="42.000000" y="36.620000" text-anchor="middle" font-family="Arial, sans-serif" font-size="2.2" fill="black">ID 5</text>
<g fill="none" stroke="black" stroke-width="0.25">
<line x1="6" y1="43" x2="26" y2="43"/>
<line x1="6" y1="41.8" x2="6" y2="44.2"/>
<line x1="26" y1="41.8" x2="26" y2="44.2"/>
</g>
<text x="28" y="43.8" font-family="Arial, sans-serif" font-size="2.1" fill="black">20.00 mm print check</text>
<text x="32" y="47" text-anchor="middle" font-family="Arial, sans-serif" font-size="1.8" fill="black">Every outer black-border edge = 10.62 mm; print at 100%</text>
</svg>
