<svg xmlns="http://www.w3.org/2000/svg" width="15.930000mm" height="15.930000mm" viewBox="0 0 15.930000 15.930000" shape-rendering="crispEdges">
<title>AprilTag 36h11 ID 1, outer black border 10.62 mm</title>
<rect width="100%" height="100%" fill="white"/>
<g fill="black">
<rect x="2.655000" y="2.655000" width="1.327500" height="1.327500"/>
<rect x="3.982500" y="2.655000" width="1.327500" height="1.327500"/>
<rect x="5.310000" y="2.655000" width="1.327500" height="1.327500"/>
<rect x="6.637500" y="2.655000" width="1.327500" height="1.327500"/>
<rect x="7.965000" y="2.655000" width="1.327500" height="1.327500"/>
<rect x="9.292500" y="2.655000" width="1.327500" height="1.327500"/>
<rect x="10.620000" y="2.655000" width="1.327500" height="1.327500"/>
<rect x="11.947500" y="2.655000" width="1.327500" height="1.327500"/>
<rect x="2.655000" y="3.982500" width="1.327500" height="1.327500"/>
<rect x="5.310000" y="3.982500" width="1.327500" height="1.327500"/>
<rect x="6.637500" y="3.982500" width="1.327500" height="1.327500"/>
<rect x="9.292500" y="3.982500" width="1.327500" height="1.327500"/>
<rect x="10.620000" y="3.982500" width="1.327500" height="1.327500"/>
<rect x="11.947500" y="3.982500" width="1.327500" height="1.327500"/>
<rect x="2.655000" y="5.310000" width="1.327500" height="1.327500"/>
<rect x="5.310000" y="5.310000" width="1.327500" height="1.327500"/>
<rect x="9.292500" y="5.310000" width="1.327500" height="1.327500"/>
<rect x="11.947500" y="5.310000" width="1.327500" height="1.327500"/>
<rect x="2.655000" y="6.637500" width="1.327500" height="1.327500"/>
<rect x="3.982500" y="6.637500" width="1.327500" height="1.327500"/>
<rect x="5.310000" y="6.637500" width="1.327500" height="1.327500"/>
<rect x="6.637500" y="6.637500" width="1.327500" height="1.327500"/>
<rect x="10.620000" y="6.637500" width="1.327500" height="1.327500"/>
<rect x="11.947500" y="6.637500" width="1.327500" height="1.327500"/>
<rect x="2.655000" y="7.965000" width="1.327500" height="1.327500"/>
<rect x="3.982500" y="7.965000" width="1.327500" height="1.327500"/>
<rect x="5.310000" y="7.965000" width="1.327500" height="1.327500"/>
<rect x="11.947500" y="7.965000" width="1.327500" height="1.327500"/>
<rect x="2.655000" y="9.292500" width="1.327500" height="1.327500"/>
<rect x="7.965000" y="9.292500" width="1.327500" height="1.327500"/>
<rect x="10.620000" y="9.292500" width="1.327500" height="1.327500"/>
<rect x="11.947500" y="9.292500" width="1.327500" height="1.327500"/>
<rect x="2.655000" y="10.620000" width="1.327500" height="1.327500"/>
<rect x="3.982500" y="10.620000" width="1.327500" height="1.327500"/>
<rect x="7.965000" y="10.620000" width="1.327500" height="1.327500"/>
<rect x="11.947500" y="10.620000" width="1.327500" height="1.327500"/>
<rect x="2.655000" y="11.947500" width="1.327500" height="1.327500"/>
<rect x="3.982500" y="11.947500" width="1.327500" height="1.327500"/>
<rect x="5.310000" y="11.947500" width="1.327500" height="1.327500"/>
<rect x="6.637500" y="11.947500" width="1.327500" height="1.327500"/>
<rect x="7.965000" y="11.947500" width="1.327500" height="1.327500"/>
<rect x="9.292500" y="11.947500" width="1.327500" height="1.327500"/>
<rect x="10.620000" y="11.947500" width="1.327500" height="1.327500"/>
<rect x="11.947500" y="11.947500" width="1.327500" height="1.327500"/>
</g>
</svg>
